<?xml version="1.0" encoding="utf-8"?>
<!-- Generator: Adobe Illustrator 18.1.1, SVG Export Plug-In . SVG Version: 6.00 Build 0)  -->
<svg version="1.1" id="Layer_1" xmlns="http://www.w3.org/2000/svg" xmlns:xlink="http://www.w3.org/1999/xlink" x="0px" y="0px"
	 viewBox="0 0 828 828" enable-background="new 0 0 828 828" xml:space="preserve">
<path d="M819.6,414C819.6,189.3,638.7,8.4,414,8.4S8.4,189.3,8.4,414S189.3,819.6,414,819.6S819.6,638.7,819.6,414z M326.1,603.3
	c-18.6-18.6-18.6-49,0-67.6l121.7-120l-121.7-120c-18.6-18.6-18.6-49,0-67.6s50.7-18.6,69.3,0l155.5,153.8c18.6,18.6,18.6,49,0,67.6
	L395.4,603.3C376.8,621.8,344.7,621.8,326.1,603.3z"/>
</svg>
