<?xml version="1.0" encoding="utf-8"?>
<!-- Generator: Adobe Illustrator 18.1.1, SVG Export Plug-In . SVG Version: 6.00 Build 0)  -->
<svg version="1.1" id="Layer_11" xmlns="http://www.w3.org/2000/svg" xmlns:xlink="http://www.w3.org/1999/xlink" x="0px" y="0px"
	 viewBox="0 0 828 828" enable-background="new 0 0 828 828" xml:space="preserve">
<path fill="#FFFFFF" d="M813.9,616.5L512.2,314.8l15-21.6L342.1,108l-20.7,16l-6.6-6.6c-10.3-10.3-27.3-10.3-36.7,0L250,145.6
	c-10.3,10.3-10.3,25.4-0.9,35.7L0,376.8L277.3,654l181.4-262.2l161.7,161.7l-7.5,47.9L721,709.5c10.3,10.3,27.3,10.3,36.7,0
	l28.2-28.2l28.2-28.2C824.2,642.8,824.2,626.8,813.9,616.5z M277.3,578.9l-204-204l84.6-63.9l177.6,177.6L277.3,578.9z"/>
</svg>
