<?xml version="1.0" encoding="utf-8"?>
<!-- Generator: Adobe Illustrator 18.1.1, SVG Export Plug-In . SVG Version: 6.00 Build 0)  -->
<svg version="1.1" id="Layer_1" xmlns="http://www.w3.org/2000/svg" xmlns:xlink="http://www.w3.org/1999/xlink" x="0px" y="0px"
	 viewBox="184 76 64 64" enable-background="new 184 76 64 64" xml:space="preserve">
<path fill="#37BFC0" d="M246.1,81.5h-60.4c-1,0-1.8,0.8-1.8,1.8v49.8c0,1,0.8,1.8,1.8,1.8h60.4c1,0,1.8-0.8,1.8-1.8V83.3
	C247.9,82.3,247.1,81.5,246.1,81.5z M187.4,85.1h49.8v3.6h-49.8V85.1z M244.3,131.3h-56.9V92.2h56.9V131.3z M244.3,88.6h-3.6v-3.6
	h3.6V88.6z"/>
<path fill="#37BFC0" d="M191.8,109.4c0.3,0.3,0.8,0.5,1.3,0.5s0.9-0.2,1.3-0.5l5.3-5.3c0.7-0.7,0.7-1.8,0-2.5l-5.3-5.3
	c-0.7-0.7-1.8-0.7-2.5,0c-0.7,0.7-0.7,1.8,0,2.5l4.1,4.1l-4.1,4.1C191.1,107.6,191.1,108.7,191.8,109.4z"/>
<path fill="#37BFC0" d="M201.9,113.5h7.1c1,0,1.8-0.8,1.8-1.8s-0.8-1.8-1.8-1.8h-7.1c-1,0-1.8,0.8-1.8,1.8S201,113.5,201.9,113.5z"
	/>
</svg>
