<?xml version="1.0" encoding="utf-8"?>
<!-- Generator: Adobe Illustrator 18.1.1, SVG Export Plug-In . SVG Version: 6.00 Build 0)  -->
<svg version="1.1" id="Layer_1" xmlns="http://www.w3.org/2000/svg" xmlns:xlink="http://www.w3.org/1999/xlink" x="0px" y="0px"
	 viewBox="184 76 64 64" enable-background="new 184 76 64 64" xml:space="preserve">
<path fill="#37BFC0" d="M243.2,91.6l-26-15.4c0,0,0,0-0.1,0c-0.1-0.1-0.2-0.1-0.3-0.1h-0.1c-0.1,0-0.2,0-0.3-0.1c0,0,0,0-0.1,0l0,0
	c-0.1,0-0.3,0-0.3,0.1h-0.1c-0.1,0-0.2,0.1-0.3,0.1h-0.1L189.2,91c-0.5,0.3-0.9,0.9-0.9,1.4l-0.3,30.2c0,0,0,0,0,0.1
	c0,0.1,0,0.3,0,0.3c0,0.1,0,0.1,0.1,0.2c0,0.1,0.1,0.2,0.1,0.3c0,0,0,0.1,0.1,0.1c0.1,0.1,0.1,0.2,0.2,0.3c0,0,0,0,0,0.1l0,0
	c0.1,0.1,0.2,0.2,0.3,0.3l0,0l26.1,15.7c0.3,0.2,0.5,0.3,0.9,0.3c0.3,0,0.5-0.1,0.8-0.2l26.3-14.8c0.5-0.3,0.9-0.9,0.9-1.4l0.3-30.4
	C243.9,92.3,243.6,91.8,243.2,91.6z M216.3,79.4L239,92.9l-23,12.9l-22.6-13.5L216.3,79.4z M217.6,108.7l23-12.9l-0.2,26.6
	l-22.8,12.8V108.7z M191.7,95.1l22.6,13.5v26.7l-23-13.8L191.7,95.1z M201.6,115.8c0.4,0.8,0.2,1.8-0.6,2.3
	c-0.3,0.2-0.5,0.2-0.8,0.2c-0.6,0-1.1-0.3-1.4-0.9c-0.4-0.8-0.2-1.8,0.6-2.3C200.1,114.6,201.2,115,201.6,115.8z M211.5,112.1
	c-0.3,0.2-0.5,0.2-0.8,0.2c-0.6,0-1.1-0.3-1.5-0.9c-0.4-0.8-0.2-1.8,0.6-2.3s1.8-0.2,2.3,0.6C212.6,110.6,212.3,111.7,211.5,112.1z
	 M196.4,118.7c0.4,0.8,0.2,1.8-0.6,2.3c-0.3,0.2-0.5,0.2-0.8,0.2c-0.6,0-1.1-0.3-1.4-0.9c-0.4-0.8-0.2-1.8,0.6-2.3
	C194.9,117.6,195.9,117.9,196.4,118.7z M206.9,112.8c0.4,0.8,0.2,1.8-0.6,2.3c-0.3,0.2-0.5,0.2-0.8,0.2c-0.6,0-1.1-0.3-1.4-0.9
	c-0.4-0.8-0.2-1.8,0.6-2.3C205.4,111.8,206.4,112,206.9,112.8z M227.8,114.7c-0.3,0.5-0.9,0.8-1.4,0.8c-0.3,0-0.6-0.1-0.9-0.3
	c-0.8-0.4-1-1.5-0.6-2.3c0.4-0.8,1.5-1,2.3-0.6C227.9,112.9,228.2,113.9,227.8,114.7z M222.6,111.6c-0.3,0.5-0.9,0.8-1.4,0.8
	c-0.3,0-0.6-0.1-0.9-0.3c-0.8-0.4-1-1.5-0.6-2.3c0.4-0.8,1.5-1,2.3-0.6C222.8,109.8,223,110.9,222.6,111.6z M232.9,117.8
	c-0.3,0.5-0.9,0.8-1.4,0.8c-0.3,0-0.6-0.1-0.9-0.3c-0.8-0.4-1-1.5-0.6-2.3c0.4-0.8,1.5-1,2.3-0.6C233.2,116,233.5,117,232.9,117.8z
	 M238.2,120.9c-0.3,0.5-0.9,0.8-1.4,0.8c-0.3,0-0.6-0.1-0.9-0.3c-0.8-0.4-1-1.5-0.6-2.3c0.4-0.8,1.5-1,2.3-0.6
	C238.3,119.1,238.6,120.1,238.2,120.9z M214.6,83.5c0-0.9,0.8-1.7,1.7-1.7c0.9,0,1.7,0.8,1.7,1.7c0,0.9-0.8,1.7-1.7,1.7l0,0
	C215.4,85.2,214.6,84.5,214.6,83.5z M217.7,101.7c0,0.9-0.8,1.7-1.7,1.7l0,0c-0.9,0-1.7-0.8-1.7-1.7c0-0.9,0.8-1.7,1.7-1.7
	C216.9,100,217.7,100.7,217.7,101.7z M214.5,95.6c0-0.9,0.8-1.7,1.7-1.7s1.7,0.8,1.7,1.7c0,0.9-0.8,1.7-1.7,1.7l0,0
	C215.2,97.2,214.5,96.5,214.5,95.6z M214.6,89.6c0-0.9,0.8-1.7,1.7-1.7c0.9,0,1.7,0.8,1.7,1.7c0,0.9-0.8,1.7-1.7,1.7l0,0
	C215.3,91.2,214.5,90.5,214.6,89.6z"/>
</svg>
