<?xml version="1.0" encoding="utf-8"?>
<!-- Generator: Adobe Illustrator 18.1.1, SVG Export Plug-In . SVG Version: 6.00 Build 0)  -->
<svg version="1.1" id="Your_Icon" xmlns="http://www.w3.org/2000/svg" xmlns:xlink="http://www.w3.org/1999/xlink" x="0px" y="0px"
	 viewBox="-337.5 387.3 49 55.4" enable-background="new -337.5 387.3 49 55.4" xml:space="preserve">
<g>
	<path fill="#19C8C6" d="M-292.9,407.6c-2.1,0-3.8,1.7-3.8,3.8c0,0.3,0,0.5,0.1,0.8l-18.7,10.5l6.6-11.2c0.3,0.1,0.6,0.1,0.8,0.1
		c2.1,0,3.8-1.7,3.8-3.8s-1.7-3.8-3.8-3.8c-2.1,0-3.8,1.7-3.8,3.8c0,0.3,0,0.6,0.1,0.9l-19.3,11.6c-0.1-0.1-0.3-0.2-0.5-0.3l3-11
		c2-0.1,3.6-1.7,3.6-3.8c0-0.7-0.2-1.4-0.6-2l7.2-8.4c0.5,0.2,1,0.3,1.5,0.3c2.1,0,3.8-1.7,3.8-3.8s-1.7-3.8-3.8-3.8
		c-2.1,0-3.8,1.7-3.8,3.8c0,0.7,0.2,1.4,0.6,2l-7.2,8.4c-0.5-0.2-1-0.3-1.5-0.3c-2.1,0-3.8,1.7-3.8,3.8c0,1.3,0.7,2.5,1.7,3.2l-3,11
		c-2,0.1-3.6,1.7-3.6,3.8c0,2.1,1.7,3.8,3.8,3.8s3.8-1.7,3.8-3.8c0-0.3,0-0.6-0.1-0.9l18.6-11.1l-6.4,11c-0.3-0.1-0.6-0.1-0.8-0.1
		c-2.1,0-3.8,1.7-3.8,3.8c0,2.1,1.7,3.8,3.8,3.8c1.7,0,3.1-1.1,3.6-2.6h11.9c0.1,0.4,0.3,0.7,0.5,1.1l-5.4,7.2
		c-0.4-0.1-0.8-0.2-1.3-0.2c-2.1,0-3.8,1.7-3.8,3.8c0,2.1,1.7,3.8,3.8,3.8c2.1,0,3.8-1.7,3.8-3.8c0-0.8-0.3-1.6-0.7-2.2l5.4-7.2
		c0.4,0.1,0.8,0.2,1.3,0.2c2.1,0,3.8-1.7,3.8-3.8c0-2.1-1.7-3.8-3.8-3.8c-1.7,0-3.1,1.1-3.6,2.6h-11.1l18.6-10.5
		c0.7,0.6,1.6,1,2.6,1c2.1,0,3.8-1.7,3.8-3.8C-289.1,409.3-290.8,407.6-292.9,407.6z M-307.9,406.3c0.8,0,1.5,0.7,1.5,1.5
		c0,0.8-0.7,1.5-1.5,1.5c-0.8,0-1.5-0.7-1.5-1.5C-309.4,407-308.7,406.3-307.9,406.3z M-316.5,389.9c0.8,0,1.5,0.7,1.5,1.5
		c0,0.8-0.7,1.5-1.5,1.5c-0.8,0-1.5-0.7-1.5-1.5C-318,390.6-317.3,389.9-316.5,389.9z M-328.4,403.7c0.8,0,1.5,0.7,1.5,1.5
		c0,0.8-0.7,1.5-1.5,1.5c-0.8,0-1.5-0.7-1.5-1.5C-329.9,404.4-329.3,403.7-328.4,403.7z M-333.4,424.6c-0.8,0-1.5-0.7-1.5-1.5
		c0-0.8,0.7-1.5,1.5-1.5c0.8,0,1.5,0.7,1.5,1.5C-331.9,423.9-332.5,424.6-333.4,424.6z M-309.1,440.1c-0.8,0-1.5-0.7-1.5-1.5
		c0-0.8,0.7-1.5,1.5-1.5c0.8,0,1.5,0.7,1.5,1.5C-307.6,439.4-308.2,440.1-309.1,440.1z M-299.4,424.2c0.8,0,1.5,0.7,1.5,1.5
		c0,0.8-0.7,1.5-1.5,1.5c-0.8,0-1.5-0.7-1.5-1.5C-300.9,424.9-300.2,424.2-299.4,424.2z M-318.4,427.2c-0.8,0-1.5-0.7-1.5-1.5
		c0-0.8,0.7-1.5,1.5-1.5c0.8,0,1.5,0.7,1.5,1.5C-316.9,426.5-317.6,427.2-318.4,427.2z M-292.9,412.8c-0.8,0-1.5-0.7-1.5-1.5
		c0-0.8,0.7-1.5,1.5-1.5c0.8,0,1.5,0.7,1.5,1.5C-291.4,412.2-292.1,412.8-292.9,412.8z"/>
</g>
</svg>
