<?xml version="1.0" encoding="utf-8"?>
<!-- Generator: Adobe Illustrator 18.1.1, SVG Export Plug-In . SVG Version: 6.00 Build 0)  -->
<svg version="1.1" id="Layer_1" xmlns="http://www.w3.org/2000/svg" xmlns:xlink="http://www.w3.org/1999/xlink" x="0px" y="0px"
	 viewBox="184 76 64 64" enable-background="new 184 76 64 64" xml:space="preserve">
<g>
	<path fill="#37BFC0" d="M207.6,90.1h29.2c1.7,0,2.9-1.3,2.9-2.9c0-1.7-1.3-2.9-2.9-2.9h-29.2c-1.7,0-2.9,1.3-2.9,2.9
		C204.8,88.7,206,90.1,207.6,90.1z"/>
	<path fill="#37BFC0" d="M236.7,97.7h-29.1c-1.7,0-2.9,1.3-2.9,2.9c0,1.7,1.3,2.9,2.9,2.9h29.2c1.7,0,2.9-1.3,2.9-2.9
		C239.7,99,238.4,97.7,236.7,97.7z"/>
	<path fill="#37BFC0" d="M236.7,111.2h-29.1c-1.7,0-2.9,1.3-2.9,2.9c0,1.7,1.3,2.9,2.9,2.9h29.2c1.7,0,2.9-1.3,2.9-2.9
		C239.8,112.5,238.4,111.2,236.7,111.2z"/>
	<path fill="#37BFC0" d="M236.7,124.6h-29.1c-1.7,0-2.9,1.3-2.9,2.9s1.3,2.8,2.9,2.8h29.2c1.7,0,2.9-1.3,2.9-2.9
		C239.7,125.8,238.4,124.6,236.7,124.6z"/>
	<path fill="#37BFC0" d="M197.2,127.7l1.9-1.9c0.2-0.2,0.2-0.6,0-0.7L198,124c-0.2-0.2-0.6-0.2-0.7,0l-1.9,1.9l-1.9-1.9
		c-0.2-0.2-0.6-0.2-0.7,0l-1.1,1.1c-0.2,0.2-0.2,0.6,0,0.7l1.9,1.9l-1.9,1.9c-0.2,0.2-0.2,0.6,0,0.7l1.1,1.1c0.2,0.2,0.6,0.2,0.7,0
		l1.9-1.9l1.9,1.9c0.2,0.2,0.6,0.2,0.7,0l1.1-1.1c0.2-0.2,0.2-0.6,0-0.7L197.2,127.7z"/>
	<path fill="#37BFC0" d="M197.2,114.2l1.9-1.9c0.2-0.2,0.2-0.6,0-0.7l-1.1-1.1c-0.2-0.2-0.6-0.2-0.7,0l-1.9,1.9l-1.9-1.9
		c-0.2-0.2-0.6-0.2-0.7,0l-1.1,1.1c-0.2,0.2-0.2,0.6,0,0.7l1.9,1.9l-1.9,1.9c-0.2,0.2-0.2,0.6,0,0.7l1.1,1.1c0.2,0.2,0.6,0.2,0.7,0
		l1.9-1.9l1.9,1.9c0.2,0.2,0.6,0.2,0.7,0l1.1-1.1c0.2-0.2,0.2-0.6,0-0.7L197.2,114.2z"/>
	<path fill="#37BFC0" d="M197.2,86.8l1.9-1.9c0.2-0.2,0.2-0.6,0-0.7l-1.1-1.1c-0.2-0.2-0.6-0.2-0.7,0l-1.9,1.9l-1.9-1.9
		c-0.2-0.2-0.6-0.2-0.7,0l-1.1,1.1c-0.2,0.2-0.2,0.6,0,0.7l1.9,1.9l-1.9,1.9c-0.2,0.2-0.2,0.6,0,0.7l1.1,1.1c0.2,0.2,0.6,0.2,0.7,0
		l1.9-1.9l1.9,1.9c0.2,0.2,0.6,0.2,0.7,0l1.1-1.1c0.2-0.2,0.2-0.6,0-0.7L197.2,86.8z"/>
	<path fill="#37BFC0" d="M197.2,100.9l1.9-1.9c0.2-0.2,0.2-0.6,0-0.7l-1.1-1.1c-0.2-0.2-0.6-0.2-0.7,0l-1.9,1.9l-1.9-1.9
		c-0.2-0.2-0.6-0.2-0.7,0l-1.1,1.1c-0.2,0.2-0.2,0.6,0,0.7l1.9,1.9l-1.9,1.9c-0.2,0.2-0.2,0.6,0,0.7l1.1,1.1c0.2,0.2,0.6,0.2,0.7,0
		l1.9-1.9l1.9,1.9c0.2,0.2,0.6,0.2,0.7,0l1.1-1.1c0.2-0.2,0.2-0.6,0-0.7L197.2,100.9z"/>
</g>
</svg>
