<?xml version="1.0" encoding="utf-8"?>
<!-- Generator: Adobe Illustrator 18.1.1, SVG Export Plug-In . SVG Version: 6.00 Build 0)  -->
<svg version="1.1" id="Layer_1" xmlns="http://www.w3.org/2000/svg" xmlns:xlink="http://www.w3.org/1999/xlink" x="0px" y="0px"
	 viewBox="0 0 756 756" enable-background="new 0 0 756 756" xml:space="preserve">
<g>
	<path fill="#19C8C6" d="M20,751.5c-4.3,0-8.6-1.8-11.7-4.8c-4-4-5.7-9.8-4.4-15.4L59,489.1c0.7-3,2.2-5.8,4.4-8L509.4,35
		c38-38,98.9-44.3,130.1-13.1l93.5,93.6c16.2,16.1,23.4,39.1,20.2,64.4c-2.9,23.8-14.8,47.1-33.3,65.6l-446,446
		c-2.2,2.2-5,3.7-8,4.4L23.7,751.1C22.5,751.4,21.3,751.5,20,751.5L20,751.5z M90.2,501.1L42,713l211.9-48.2l442.7-442.7
		c13.3-13.3,21.8-29.7,23.8-46.2c1.9-15.1-2-28.2-10.8-36.9l-93.5-93.6c-9.2-9.3-21.3-11.2-29.7-11.2c-18.4,0-38.4,9-53.6,24.3
		L90.2,501.1L90.2,501.1z"/>
	<path fill="#19C8C6" d="M482.6,99l173.4,173.4l-23.4,23.4L459.3,122.4C459.3,122.4,482.6,99,482.6,99z"/>
	<path fill="#19C8C6" d="M412.5,169.1L586,342.5l-23.4,23.4L389.1,192.5L412.5,169.1L412.5,169.1z"/>
	<path fill="#19C8C6" d="M276.7,682C175.9,682,73.1,579.2,73.1,478.3h33.1c0,82.9,87.7,170.5,170.6,170.5V682z"/>
</g>
</svg>
