<?xml version="1.0" encoding="utf-8"?>
<!-- Generator: Adobe Illustrator 18.1.1, SVG Export Plug-In . SVG Version: 6.00 Build 0)  -->
<svg version="1.1" id="Layer_1" xmlns="http://www.w3.org/2000/svg" xmlns:xlink="http://www.w3.org/1999/xlink" x="0px" y="0px"
	 viewBox="-405.5 390.5 49 49" enable-background="new -405.5 390.5 49 49" xml:space="preserve">
<path fill="#19C8C6" d="M-357,415c0-13.3-10.7-24-24-24s-24,10.7-24,24s10.7,24,24,24S-357,428.3-357,415z M-386.2,426.2
	c-1.1-1.1-1.1-2.9,0-4l7.2-7.1l-7.2-7.1c-1.1-1.1-1.1-2.9,0-4c1.1-1.1,3-1.1,4.1,0l9.2,9.1c1.1,1.1,1.1,2.9,0,4l-9.2,9.1
	C-383.2,427.3-385.1,427.3-386.2,426.2z"/>
</svg>
