<?xml version="1.0" encoding="utf-8"?>
<!-- Generator: Adobe Illustrator 18.1.1, SVG Export Plug-In . SVG Version: 6.00 Build 0)  -->
<svg version="1.1" id="Layer_11" xmlns="http://www.w3.org/2000/svg" xmlns:xlink="http://www.w3.org/1999/xlink" x="0px" y="0px"
	 viewBox="-356.7 370.9 87.4 88.1" enable-background="new -356.7 370.9 87.4 88.1" xml:space="preserve">
<path fill="#19C8C6" d="M-270.1,437.1l-32.1-32.1l1.6-2.3l-19.7-19.7l-2.2,1.7l-0.7-0.7c-1.1-1.1-2.9-1.1-3.9,0l-3,3
	c-1.1,1.1-1.1,2.7-0.1,3.8l-26.5,20.8l29.5,29.5l19.3-27.9l17.2,17.2l-0.8,5.1l11.5,11.5c1.1,1.1,2.9,1.1,3.9,0l3-3l3-3
	C-269,439.9-269,438.2-270.1,437.1z M-327.2,433.1l-21.7-21.7l9-6.8l18.9,18.9L-327.2,433.1z"/>
</svg>
