<?xml version="1.0" encoding="utf-8"?>
<!-- Generator: Adobe Illustrator 18.1.1, SVG Export Plug-In . SVG Version: 6.00 Build 0)  -->
<svg version="1.1" id="Your_Icon" xmlns="http://www.w3.org/2000/svg" xmlns:xlink="http://www.w3.org/1999/xlink" x="0px" y="0px"
	 viewBox="0 0 828 828" enable-background="new 0 0 828 828" xml:space="preserve">
<g>
	<path fill="#FFFFFF" d="M715.6,300.4c-31.4,0-56.8,25.4-56.8,56.8c0,4.5,0,7.5,1.5,12L380.8,526.1l98.6-167.4c4.5,1.5,9,1.5,12,1.5
		c31.4,0,56.8-25.4,56.8-56.8s-25.4-56.8-56.8-56.8s-56.8,25.4-56.8,56.8c0,4.5,0,9,1.5,13.5L147.7,490.2c-1.5-1.5-4.5-3-7.5-4.5
		L185,321.3c29.9-1.5,53.8-25.4,53.8-56.8c0-10.5-3-20.9-9-29.9l107.6-125.5c7.5,3,14.9,4.5,22.4,4.5c31.4,0,56.8-25.4,56.8-56.8
		S391.3,0,359.9,0s-56.8,25.4-56.8,56.8c0,10.5,3,20.9,9,29.9L204.4,212.2c-7.5-3-14.9-4.5-22.4-4.5c-31.4,0-56.8,25.4-56.8,56.8
		c0,19.4,10.5,37.4,25.4,47.8l-44.8,164.4C75.9,478.3,52,502.2,52,533.6c0,31.4,25.4,56.8,56.8,56.8s56.8-25.4,56.8-56.8
		c0-4.5,0-9-1.5-13.5l278-165.9l-95.7,164.4c-4.5-1.5-9-1.5-12-1.5c-31.4,0-56.8,25.4-56.8,56.8c0,31.4,25.4,56.8,56.8,56.8
		c25.4,0,46.3-16.4,53.8-38.9h177.9c1.5,6,4.5,10.5,7.5,16.4l-80.7,107.6c-6-1.5-12-3-19.4-3c-31.4,0-56.8,25.4-56.8,56.8
		c0,31.4,25.4,56.8,56.8,56.8s56.8-25.4,56.8-56.8c0-12-4.5-23.9-10.5-32.9l80.7-107.6c6,1.5,12,3,19.4,3
		c31.4,0,56.8-25.4,56.8-56.8c0-31.4-25.4-56.8-56.8-56.8c-25.4,0-46.3,16.4-53.8,38.9H400.2l278-156.9c10.5,9,23.9,14.9,38.9,14.9
		c31.4,0,56.8-25.4,56.8-56.8C772.4,325.8,747,300.4,715.6,300.4z M491.4,281c12,0,22.4,10.5,22.4,22.4c0,12-10.5,22.4-22.4,22.4
		c-12,0-22.4-10.5-22.4-22.4C469,291.4,479.4,281,491.4,281z M362.9,35.9c12,0,22.4,10.5,22.4,22.4s-10.5,22.4-22.4,22.4
		c-12,0-22.4-10.5-22.4-22.4S350.9,35.9,362.9,35.9z M185,242.1c12,0,22.4,10.5,22.4,22.4c0,12-10.5,22.4-22.4,22.4
		s-22.4-10.5-22.4-22.4S171.6,242.1,185,242.1z M110.3,554.5c-12,0-22.4-10.5-22.4-22.4c0-12,10.5-22.4,22.4-22.4
		s22.4,10.5,22.4,22.4S123.7,554.5,110.3,554.5z M473.5,786.2c-12,0-22.4-10.5-22.4-22.4c0-12,10.5-22.4,22.4-22.4
		c12,0,22.4,10.5,22.4,22.4S486.9,786.2,473.5,786.2z M618.4,548.5c12,0,22.4,10.5,22.4,22.4s-10.5,22.4-22.4,22.4
		c-12,0-22.4-10.5-22.4-22.4S606.5,548.5,618.4,548.5z M334.5,593.3c-12,0-22.4-10.5-22.4-22.4s10.5-22.4,22.4-22.4
		c12,0,22.4,10.5,22.4,22.4S346.4,593.3,334.5,593.3z M715.6,378.1c-12,0-22.4-10.5-22.4-22.4c0-12,10.5-22.4,22.4-22.4
		c12,0,22.4,10.5,22.4,22.4C738,369.2,727.6,378.1,715.6,378.1z"/>
</g>
</svg>
