<?xml version="1.0" encoding="utf-8"?>
<!-- Generator: Adobe Illustrator 18.1.1, SVG Export Plug-In . SVG Version: 6.00 Build 0)  -->
<svg version="1.1" id="Layer_1" xmlns="http://www.w3.org/2000/svg" xmlns:xlink="http://www.w3.org/1999/xlink" x="0px" y="0px"
	 viewBox="184 76 64 64" enable-background="new 184 76 64 64" xml:space="preserve">
<path fill="#37BFC0" d="M244.5,77c-3.2-1.7-7.1-0.5-8.8,2.7l-0.3,0.6L235,81l-1.6,3l-0.2,0.4l-7.4,14.2h0l-1.8,3.5l-5.8,11.1
	l-2.4,4.5l-3.2,6l-1.5,12.5h-27v3.3h27.9c0.1,0,0.2,0,0.4,0c0.3,0,0.5-0.1,0.7-0.3l10.9-9.5c0.1-0.1,0.2-0.3,0.3-0.4l7.3-13.8
	l2.7-5.2l1.5-2.9l2.3-4.3l1.6-2.9h0l0.8-1.5l4.2-7.9l1.7-3.3L247,86l0.1-0.2C248.9,82.6,247.6,78.6,244.5,77z M217,132.1l-2.7-1.4
	l0.7-5.5c0.3,0.1,0.7,0.1,1,0.2c0,0,0,0,0,0c0.7,0.2,1.4,0.5,2.3,0.9c0.9,0.5,1.5,0.9,2.1,1.4c0,0,0,0,0,0c0.3,0.2,0.5,0.5,0.7,0.7
	L217,132.1z M239.6,94.5l-2.5,4.8l-3.9,7.3l-1.5,2.9l-8.9,16.8c-0.2-0.2-0.4-0.4-0.6-0.6c-0.7-0.6-1.5-1.1-2.5-1.7s-2-0.9-2.8-1.1
	c-0.3-0.1-0.5-0.2-0.8-0.2l0.4-0.7l5.2-9.7l3-5.6l1-1.8l4-7.6l0.6-1.1l0.4-0.7l2.7-5.1c3.7,0.4,5.9,2.3,6.9,3.4L239.6,94.5z
	 M240.5,92.7c-1.2-1.2-3.4-3-6.9-3.5l0.5-0.9c3.7,0.4,5.9,2.4,6.8,3.5L240.5,92.7z M244.8,84.5l-0.3,0.7h0l-0.3,0.6l-0.3,0.6
	l-0.2,0.3l-0.8,1.6l-0.3,0.7l-0.8,1.5l-0.2,0.5c-1.1-1.2-3.3-3-6.8-3.5l0-0.1h0l0.1-0.2l1.3-2.4l0.8-1.5l0.8-1.5l0.2-0.4l0,0
	l0.2-0.3c1-1.9,3.3-2.6,5.2-1.6C245.1,80.3,245.8,82.6,244.8,84.5z"/>
<path d="M206,144.3c-0.1,0.1-0.2,0.2-0.4,0.3L206,144.3z"/>
</svg>
